# xmcd
#
# Track frame offsets: 
#        150
#        28361
#        51730
#        71195
#        100252
#        126697
#        150454
#        185047
#        214555
#        245202
#
# Disc length: 3714 seconds
#
# Revision: 0
# Processed by: cddbd v1.5.1PL2 Copyright (c) Steve Scherf et al.
# Submitted via: ExactAudioCopy v0.95b3
#
DISCID=a50e800a
DTITLE=Tom Waits - An Evening with Tom Waits, Ryman Auditorium, 2006-0
DTITLE=8-05 CD2
DYEAR=2006
DGENRE=Alt. Rock
TTITLE0=Shake It
TTITLE1=What's He Building In There
TTITLE2=Trampled Rose
TTITLE3=Get Behind The Mule
TTITLE4=Don't Go Into That Barn
TTITLE5=It Rains On Me
TTITLE6=Sins Of The Father
TTITLE7=Going Out West
TTITLE8=Day After Tommorrow
TTITLE9=Heartattack And Vine \\ Spoonful
EXTD=
EXTT0=
EXTT1=
EXTT2=
EXTT3=
EXTT4=
EXTT5=
EXTT6=
EXTT7=
EXTT8=
EXTT9=
PLAYORDER=
